<svg version="1.1" id="Layer_1" xmlns="http://www.w3.org/2000/svg" xmlns:xlink="http://www.w3.org/1999/xlink" x="0px" y="0px"
	 width="100%" viewBox="0 0 1920 1920" enable-background="new 0 0 1920 1920" xml:space="preserve">
<path fill="#000000" opacity="1.000000" stroke="none" 
	d="
M1088.000000,1921.000000 
	C725.333313,1921.000000 363.166656,1921.000000 1.000000,1921.000000 
	C1.000000,1281.000000 1.000000,641.000000 1.000000,1.000000 
	C641.000000,1.000000 1281.000000,1.000000 1921.000000,1.000000 
	C1921.000000,641.000000 1921.000000,1281.000000 1921.000000,1921.000000 
	C1643.500000,1921.000000 1366.000000,1921.000000 1088.000000,1921.000000 
M1730.315186,932.500183 
	C1730.315186,806.841125 1730.293579,681.182068 1730.407837,555.523071 
	C1730.411743,551.245361 1729.306274,548.807190 1725.483154,546.468750 
	C1471.983643,391.416595 1218.557129,236.245041 965.177368,80.997490 
	C962.032593,79.070641 959.875610,79.120041 956.761047,81.015694 
	C703.219910,235.332581 449.633606,389.575165 195.988113,543.720398 
	C192.692154,545.723450 191.595169,547.750244 191.596527,551.546936 
	C191.693512,823.521545 191.692322,1095.496216 191.603897,1367.470825 
	C191.602737,1371.032715 192.541794,1373.085693 195.667816,1374.998291 
	C449.431549,1530.251953 703.147034,1685.584473 956.813232,1840.997314 
	C959.953430,1842.921143 962.110596,1842.883789 965.228577,1840.986206 
	C1218.633667,1686.763672 1472.084106,1532.615601 1725.592285,1378.562500 
	C1729.167480,1376.389893 1730.423950,1374.159546 1730.420288,1369.959473 
	C1730.294312,1224.473145 1730.315186,1078.986694 1730.315186,932.500183 
z"/>
<path fill="#FEFEFE" opacity="1.000000" stroke="none" 
	d="
M1730.315186,933.000244 
	C1730.315186,1078.986694 1730.294312,1224.473145 1730.420288,1369.959473 
	C1730.423950,1374.159546 1729.167480,1376.389893 1725.592285,1378.562500 
	C1472.084106,1532.615601 1218.633667,1686.763672 965.228577,1840.986206 
	C962.110596,1842.883789 959.953430,1842.921143 956.813232,1840.997314 
	C703.147034,1685.584473 449.431549,1530.251953 195.667816,1374.998291 
	C192.541794,1373.085693 191.602737,1371.032715 191.603897,1367.470825 
	C191.692322,1095.496216 191.693512,823.521545 191.596527,551.546936 
	C191.595169,547.750244 192.692154,545.723450 195.988113,543.720398 
	C449.633606,389.575165 703.219910,235.332581 956.761047,81.015694 
	C959.875610,79.120041 962.032593,79.070641 965.177368,80.997490 
	C1218.557129,236.245041 1471.983643,391.416595 1725.483154,546.468750 
	C1729.306274,548.807190 1730.411743,551.245361 1730.407837,555.523071 
	C1730.293579,681.182068 1730.315186,806.841125 1730.315186,933.000244 
M655.644531,1597.884521 
	C756.066223,1659.353027 856.494995,1720.809814 956.873352,1782.348877 
	C959.729187,1784.099609 961.755859,1784.461548 964.841248,1782.583374 
	C1201.631958,1638.447510 1438.475342,1494.398193 1675.374878,1350.441528 
	C1678.409668,1348.597412 1679.238525,1346.639648 1679.237671,1343.316528 
	C1679.169556,1089.489746 1679.163208,835.662964 1679.284912,581.836243 
	C1679.286743,577.887268 1677.882324,575.984619 1674.731689,574.071289 
	C1644.313232,555.598328 1613.985718,536.975952 1583.633667,518.393555 
	C1377.413696,392.139709 1171.190063,265.891815 965.015015,139.564560 
	C962.080078,137.766296 960.044434,137.670273 957.046875,139.494629 
	C720.391052,283.529175 483.686035,427.482941 246.953568,571.391541 
	C244.185852,573.074036 242.719238,574.680786 242.720871,578.314026 
	C242.834991,832.474060 242.831696,1086.634155 242.746033,1340.794312 
	C242.744919,1344.063965 243.768036,1345.772339 246.533646,1347.463501 
	C382.735809,1430.747314 518.884888,1514.117798 655.644531,1597.884521 
z"/>
<path fill="#000000" opacity="1.000000" stroke="none" 
	d="
M655.342163,1597.681641 
	C518.884888,1514.117798 382.735809,1430.747314 246.533646,1347.463501 
	C243.768036,1345.772339 242.744919,1344.063965 242.746033,1340.794312 
	C242.831696,1086.634155 242.834991,832.474060 242.720871,578.314026 
	C242.719238,574.680786 244.185852,573.074036 246.953568,571.391541 
	C483.686035,427.482941 720.391052,283.529175 957.046875,139.494629 
	C960.044434,137.670273 962.080078,137.766296 965.015015,139.564560 
	C1171.190063,265.891815 1377.413696,392.139709 1583.633667,518.393555 
	C1613.985718,536.975952 1644.313232,555.598328 1674.731689,574.071289 
	C1677.882324,575.984619 1679.286743,577.887268 1679.284912,581.836243 
	C1679.163208,835.662964 1679.169556,1089.489746 1679.237671,1343.316528 
	C1679.238525,1346.639648 1678.409668,1348.597412 1675.374878,1350.441528 
	C1438.475342,1494.398193 1201.631958,1638.447510 964.841248,1782.583374 
	C961.755859,1784.461548 959.729187,1784.099609 956.873352,1782.348877 
	C856.494995,1720.809814 756.066223,1659.353027 655.342163,1597.681641 
M882.753723,1085.715332 
	C877.677246,1076.433228 872.600830,1067.151123 868.197449,1059.099609 
	C844.100342,1059.099609 820.963501,1059.034668 797.828918,1059.237549 
	C796.189331,1059.251831 793.924927,1060.857178 793.035278,1062.363281 
	C782.984680,1079.378174 773.064026,1096.472290 763.377380,1113.696167 
	C762.406250,1115.423096 762.365662,1118.589355 763.300964,1120.332031 
	C773.663574,1139.641968 784.379944,1158.761841 794.778809,1178.052612 
	C796.144836,1180.586792 797.626221,1181.067383 800.165283,1180.996826 
	C821.800598,1180.395386 843.437866,1179.844116 865.077637,1179.445435 
	C867.959229,1179.392212 869.508179,1178.387085 870.903259,1175.934204 
	C880.592102,1158.899536 890.366638,1141.912354 900.278931,1125.006958 
	C901.822388,1122.374634 901.770447,1120.512451 900.259644,1117.855469 
	C894.351868,1107.465820 888.765381,1096.893433 882.753723,1085.715332 
M508.501953,1137.030884 
	C516.008362,1150.712646 523.573181,1164.362793 530.961182,1178.108276 
	C532.135010,1180.292236 533.335999,1181.098022 535.859375,1181.024048 
	C557.823853,1180.379639 579.794617,1179.944580 601.757263,1179.249878 
	C603.363647,1179.199097 605.606995,1178.011475 606.397888,1176.670410 
	C616.689453,1159.221069 626.804626,1141.666992 636.833374,1124.064819 
	C637.506104,1122.884033 637.744080,1120.772583 637.143799,1119.650635 
	C626.111084,1099.027222 614.919495,1078.488647 604.396729,1059.102539 
	C580.230652,1059.102539 556.930908,1059.046143 533.633057,1059.233398 
	C532.130005,1059.245605 530.064331,1060.797729 529.235046,1062.207031 
	C519.129883,1079.380615 509.135101,1096.620972 499.358185,1113.982788 
	C498.456726,1115.583740 498.560333,1118.459351 499.375153,1120.187622 
	C501.989471,1125.733032 505.157013,1131.017822 508.501953,1137.030884 
M610.275635,759.171997 
	C608.933105,756.689270 607.316772,754.311768 606.312805,751.698975 
	C604.853271,747.900391 602.479675,746.846497 598.433594,746.962097 
	C577.299377,747.565735 556.156250,747.896851 535.014160,748.144226 
	C531.965942,748.179871 530.304199,749.163574 528.796387,751.818176 
	C519.118652,768.856934 509.304199,785.819092 499.386932,802.719727 
	C497.943665,805.179260 497.854248,806.992432 499.261658,809.519958 
	C509.923798,828.667847 520.462708,847.884888 530.916504,867.147461 
	C532.087769,869.305725 533.260376,870.173767 535.804199,870.106018 
	C557.605957,869.525635 579.411072,869.052246 601.217712,868.705017 
	C604.112976,868.658936 605.624329,867.593750 607.019287,865.140503 
	C616.705811,848.105896 626.481628,831.120850 636.411743,814.227417 
	C637.979248,811.560547 637.851501,809.671509 636.394348,807.038452 
	C627.712708,791.350098 619.238525,775.546936 610.275635,759.171997 
M1137.470337,1140.500977 
	C1138.279053,1139.739380 1139.326660,1139.116455 1139.861084,1138.195557 
	C1150.116455,1120.529663 1160.375244,1102.864868 1170.395752,1085.066040 
	C1171.181885,1083.669556 1170.811523,1080.972412 1169.979370,1079.413086 
	C1159.739136,1060.227173 1149.243652,1041.177612 1139.018433,1021.983826 
	C1137.683228,1019.477661 1136.214111,1018.936279 1133.649780,1018.992188 
	C1111.845093,1019.467285 1090.038574,1019.888855 1068.230469,1020.134766 
	C1065.281128,1020.167969 1063.806030,1021.299500 1062.439941,1023.693298 
	C1052.644897,1040.857666 1042.787598,1057.987183 1032.802002,1075.041138 
	C1031.451294,1077.347900 1031.467651,1078.984131 1032.750977,1081.298218 
	C1043.298340,1100.318726 1053.745728,1119.395508 1064.088745,1138.527832 
	C1065.525879,1141.186035 1067.097290,1142.197021 1070.224854,1142.106079 
	C1092.357544,1141.461548 1114.497192,1141.047485 1137.470337,1140.500977 
M854.488770,868.892029 
	C858.152954,868.802734 861.861816,869.019958 865.462341,868.494507 
	C867.252625,868.233215 869.542847,867.022217 870.418823,865.539062 
	C880.644836,848.226257 890.696167,830.809021 900.603760,813.311829 
	C901.376038,811.947937 901.380981,809.426636 900.636292,808.035339 
	C889.740845,787.678467 878.657104,767.422424 868.216248,748.240967 
	C844.260315,748.240967 820.944397,748.196106 797.629822,748.348938 
	C796.182251,748.358398 794.131348,749.561401 793.395203,750.815979 
	C783.134644,768.301575 773.003235,785.864136 763.030273,803.515259 
	C762.253235,804.890564 762.225708,807.426453 762.974915,808.816467 
	C774.001709,829.273926 785.219543,849.628418 795.790222,868.909912 
	C815.526672,868.909912 834.509521,868.909912 854.488770,868.892029 
M1081.504883,830.971558 
	C1099.164307,830.586670 1116.822754,830.120117 1134.484253,829.893982 
	C1137.580688,829.854370 1139.192749,828.738708 1140.677002,826.127380 
	C1150.369629,809.075562 1160.174561,792.086487 1170.093384,775.165344 
	C1171.539429,772.698669 1171.467896,770.903687 1170.112671,768.441223 
	C1159.616577,749.371155 1149.238770,730.235596 1138.941528,711.057312 
	C1137.791382,708.915222 1136.669922,708.004700 1134.089844,708.069397 
	C1112.267090,708.616699 1090.440674,709.037415 1068.613159,709.341553 
	C1065.608032,709.383362 1063.854492,710.292786 1062.331421,712.977966 
	C1052.654175,730.038025 1042.831421,747.016235 1032.931274,763.948120 
	C1031.525269,766.352905 1031.464478,768.163025 1032.847412,770.642212 
	C1041.752075,786.605164 1051.215210,802.321167 1058.982300,818.830017 
	C1063.709839,828.878235 1069.712280,833.311096 1081.504883,830.971558 
M1305.696533,786.848389 
	C1313.188354,800.537109 1320.756592,814.185059 1328.104248,827.950684 
	C1329.496338,830.558716 1331.085693,831.268372 1333.929932,831.194214 
	C1355.396606,830.633911 1376.867310,830.214966 1398.338501,829.864136 
	C1401.081055,829.819397 1402.797852,829.158325 1404.276245,826.549927 
	C1414.019043,809.359680 1423.933716,792.265930 1433.928223,775.220398 
	C1435.369263,772.763000 1435.341553,770.893005 1433.986328,768.428467 
	C1423.507568,749.373962 1413.216675,730.215942 1402.670166,711.199524 
	C1401.865845,709.749268 1399.536499,708.256165 1397.931396,708.272827 
	C1375.959595,708.501404 1353.991455,709.057678 1332.019897,709.341980 
	C1329.063721,709.380249 1327.588257,710.549866 1326.228271,712.932922 
	C1316.433594,730.095093 1306.598145,747.235046 1296.591919,764.274170 
	C1295.190308,766.660889 1295.320312,768.282166 1296.646362,770.528992 
	C1299.681885,775.672729 1302.418335,780.992981 1305.696533,786.848389 
M1224.497192,1063.842041 
	C1237.479736,1063.536621 1250.461426,1063.112061 1263.445435,1063.013184 
	C1266.531494,1062.989624 1268.148560,1061.955933 1269.636719,1059.338867 
	C1279.323242,1042.303101 1289.134644,1025.337891 1299.025635,1008.420044 
	C1300.425537,1006.025818 1300.563354,1004.215515 1299.172363,1001.690369 
	C1288.127319,981.640259 1277.253662,961.495728 1267.035156,942.683167 
	C1242.794067,942.683167 1219.335083,942.635864 1195.877686,942.803894 
	C1194.508545,942.813599 1192.628418,944.259399 1191.868774,945.554626 
	C1181.702515,962.887939 1171.644897,980.285889 1161.740479,997.769836 
	C1160.969116,999.131592 1160.867676,1001.621826 1161.596069,1002.971741 
	C1172.238403,1022.697144 1183.036743,1042.339111 1193.960205,1061.910400 
	C1194.618164,1063.089355 1196.634766,1064.159668 1198.028931,1064.172119 
	C1206.517090,1064.247314 1215.008179,1064.001587 1224.497192,1063.842041 
M1317.932617,964.614502 
	C1322.002319,972.031494 1326.072144,979.448486 1330.076050,986.745544 
	C1353.007568,986.189941 1375.641357,985.536926 1398.279907,985.205688 
	C1401.682007,985.155884 1403.221191,983.837708 1404.740234,981.174255 
	C1414.286499,964.435059 1423.897949,947.731873 1433.668213,931.122803 
	C1435.297363,928.353394 1435.348999,926.302856 1433.787109,923.478210 
	C1423.419922,904.729797 1413.192383,885.903198 1403.076172,867.018127 
	C1401.720825,864.487915 1400.357056,863.570190 1397.390991,863.647095 
	C1375.748169,864.208191 1354.099976,864.599182 1332.451050,864.846313 
	C1329.439819,864.880737 1327.700928,865.673584 1326.182495,868.354065 
	C1316.520996,885.409546 1306.759766,902.410278 1296.814941,919.301636 
	C1295.217651,922.014771 1295.436768,923.867493 1296.889282,926.444092 
	C1303.902466,938.885437 1310.705444,951.445312 1317.932617,964.614502 
M729.271240,1135.833984 
	C709.293884,1136.198608 689.314331,1136.485474 669.342957,1137.058472 
	C667.516174,1137.110718 664.980591,1138.544312 664.060120,1140.098267 
	C653.902100,1157.245605 643.937561,1174.509155 634.135803,1191.863037 
	C633.297729,1193.346924 633.285278,1196.086670 634.096375,1197.593140 
	C645.105530,1218.042725 656.328247,1238.377319 667.491394,1258.727783 
	C690.713379,1258.172729 713.850281,1257.684326 736.978577,1256.929810 
	C738.611633,1256.876343 740.792969,1255.222290 741.685852,1253.704590 
	C751.707642,1236.670654 761.472778,1219.485596 771.463684,1202.433228 
	C772.820068,1200.117798 772.849060,1198.493530 771.556519,1196.143921 
	C760.512207,1176.067871 749.621216,1155.907349 738.708191,1135.816040 
	C735.830078,1135.816040 733.014587,1135.816040 729.271240,1135.833984 
M1112.499878,864.025330 
	C1097.518066,864.329468 1082.533813,864.558105 1067.558105,865.049011 
	C1065.983032,865.100647 1063.794800,866.306946 1063.011475,867.637207 
	C1052.730713,885.095703 1042.610352,902.649536 1032.609009,920.269897 
	C1031.894775,921.528076 1031.794434,923.831970 1032.467773,925.076538 
	C1043.607300,945.665283 1054.916870,966.162109 1066.219360,986.736206 
	C1089.584473,986.178833 1112.861450,985.680420 1136.130493,984.933716 
	C1137.593262,984.886780 1139.503784,983.201965 1140.344971,981.772400 
	C1149.526367,966.171082 1158.281616,950.312805 1167.730591,934.878296 
	C1171.046631,929.461853 1171.352051,925.477112 1168.068970,919.781860 
	C1157.400879,901.275757 1147.473022,882.342834 1137.498657,864.012756 
	C1129.141846,864.012756 1121.320801,864.012756 1112.499878,864.025330 
M1063.416992,1177.479248 
	C1053.287231,1195.041626 1043.107422,1212.575806 1033.114380,1230.215698 
	C1032.235840,1231.766479 1031.731323,1234.465576 1032.482422,1235.862793 
	C1043.574341,1256.494019 1054.908325,1276.994995 1066.186401,1297.529663 
	C1089.417358,1297.015625 1112.537354,1296.546021 1135.651978,1295.892090 
	C1137.103149,1295.851196 1139.129272,1294.731689 1139.850464,1293.504517 
	C1150.207153,1275.882812 1160.411621,1258.171265 1170.542969,1240.418579 
	C1171.156006,1239.344238 1171.421753,1237.436157 1170.883911,1236.434204 
	C1159.744873,1215.688599 1148.465942,1195.018311 1138.021362,1175.816040 
	C1113.955566,1175.816040 1090.974976,1175.798950 1067.994507,1175.858765 
	C1066.623901,1175.862305 1065.255005,1176.481323 1063.416992,1177.479248 
M869.059448,905.226379 
	C867.787292,904.308350 866.504700,902.577087 865.244446,902.593201 
	C842.752869,902.880371 820.262634,903.327332 797.777649,903.944336 
	C796.198059,903.987732 793.998108,905.232910 793.206604,906.578247 
	C783.008667,923.910522 772.964417,941.334412 763.065002,958.838928 
	C762.281616,960.224243 762.171326,962.751648 762.909973,964.122009 
	C774.005005,984.705872 785.295349,1005.184448 796.462708,1025.547485 
	C819.395752,1025.029785 842.048340,1024.447632 864.704468,1024.090942 
	C867.750916,1024.043091 869.438171,1023.155579 870.941223,1020.504639 
	C880.614136,1003.444885 890.405823,986.451477 900.307678,969.523560 
	C901.731873,967.088745 901.851013,965.334778 900.448120,962.796326 
	C890.000305,943.892334 879.741272,924.884094 869.059448,905.226379 
M1290.096924,674.344482 
	C1282.182007,659.751404 1274.267090,645.158264 1267.048096,631.848328 
	C1242.771118,631.848328 1219.293945,631.810791 1195.817993,631.950378 
	C1194.539673,631.957947 1192.748657,633.139648 1192.074829,634.289551 
	C1181.739746,651.927246 1171.524414,669.635498 1161.393311,687.391357 
	C1160.789551,688.449402 1160.576782,690.351196 1161.119751,691.351318 
	C1172.441406,712.210022 1183.898804,732.995117 1195.202515,753.564026 
	C1218.064087,753.041199 1240.550293,752.427368 1263.040527,752.117004 
	C1266.533569,752.068787 1268.309814,750.866699 1269.932983,747.971558 
	C1276.516846,736.229614 1283.329590,724.616150 1290.045410,712.947998 
	C1293.609253,706.756470 1299.913818,700.558594 1299.932861,694.348267 
	C1299.952393,687.903748 1293.875977,681.440674 1290.096924,674.344482 
M596.680115,902.623291 
	C576.368164,903.015747 556.057251,903.503357 535.743408,903.711182 
	C532.168457,903.747742 530.149170,904.727173 528.346680,907.949707 
	C520.076843,922.734924 511.919220,937.615601 502.836243,951.899231 
	C498.350464,958.953430 498.288940,964.166992 502.644409,971.438660 
	C513.269714,989.177979 522.767090,1007.592834 532.614380,1025.545776 
	C555.677734,1025.026001 578.315735,1024.472900 600.956299,1024.062012 
	C603.691772,1024.012451 605.423279,1023.428833 606.896973,1020.829895 
	C616.728455,1003.491760 626.813660,986.297546 636.638428,968.955750 
	C637.430603,967.557495 637.591736,965.026794 636.859497,963.656250 
	C625.905518,943.151978 614.751770,922.754395 603.793762,902.605042 
	C601.564636,902.605042 599.568909,902.605042 596.680115,902.623291 
M678.550354,670.459473 
	C675.218384,670.541199 671.855164,670.383240 668.568359,670.811401 
	C667.050842,671.009094 665.067078,671.990356 664.339355,673.229736 
	C654.071350,690.716980 643.941162,708.286072 633.939697,725.927185 
	C633.221069,727.194702 633.127197,729.520691 633.809753,730.773193 
	C645.083984,751.460632 656.529541,772.054810 667.668579,792.185364 
	C670.307434,792.185364 672.459412,792.222656 674.609863,792.179626 
	C695.103210,791.769653 715.595520,791.293884 736.090454,790.990906 
	C738.717896,790.951965 740.249146,790.258606 741.596191,787.893433 
	C751.550781,770.416382 761.703369,753.052063 771.638306,735.563965 
	C772.364136,734.286255 772.516907,731.969666 771.847229,730.719177 
	C760.880615,710.239319 749.738586,689.853455 739.178772,670.444031 
	C718.832825,670.444031 699.185120,670.444031 678.550354,670.459473 
z"/>
<path fill="#FCFCFC" opacity="1.000000" stroke="none" 
	d="
M882.906616,1086.052246 
	C888.765381,1096.893433 894.351868,1107.465820 900.259644,1117.855469 
	C901.770447,1120.512451 901.822388,1122.374634 900.278931,1125.006958 
	C890.366638,1141.912354 880.592102,1158.899536 870.903259,1175.934204 
	C869.508179,1178.387085 867.959229,1179.392212 865.077637,1179.445435 
	C843.437866,1179.844116 821.800598,1180.395386 800.165283,1180.996826 
	C797.626221,1181.067383 796.144836,1180.586792 794.778809,1178.052612 
	C784.379944,1158.761841 773.663574,1139.641968 763.300964,1120.332031 
	C762.365662,1118.589355 762.406250,1115.423096 763.377380,1113.696167 
	C773.064026,1096.472290 782.984680,1079.378174 793.035278,1062.363281 
	C793.924927,1060.857178 796.189331,1059.251831 797.828918,1059.237549 
	C820.963501,1059.034668 844.100342,1059.099609 868.197449,1059.099609 
	C872.600830,1067.151123 877.677246,1076.433228 882.906616,1086.052246 
M865.568176,1136.047119 
	C867.975037,1131.878540 870.611877,1127.819092 872.668762,1123.484497 
	C873.426575,1121.887329 873.517090,1119.274536 872.719238,1117.748901 
	C866.505066,1105.866333 859.999817,1094.135742 853.897339,1082.932373 
	C840.038635,1082.932373 826.579407,1082.842163 813.124573,1083.042236 
	C811.367554,1083.068481 808.852051,1084.110596 808.012451,1085.488892 
	C801.971069,1095.407959 796.212219,1105.502075 790.545593,1115.642334 
	C789.899780,1116.798096 789.808350,1118.896362 790.427124,1120.029297 
	C797.167358,1132.370483 804.100525,1144.606323 810.393372,1155.823242 
	C824.284485,1155.823242 837.422302,1155.946655 850.552246,1155.681274 
	C852.381409,1155.644409 854.821960,1154.122803 855.860718,1152.549805 
	C859.237976,1147.435303 862.095947,1141.977905 865.568176,1136.047119 
z"/>
<path fill="#FCFCFC" opacity="1.000000" stroke="none" 
	d="
M508.306519,1136.717041 
	C505.157013,1131.017822 501.989471,1125.733032 499.375153,1120.187622 
	C498.560333,1118.459351 498.456726,1115.583740 499.358185,1113.982788 
	C509.135101,1096.620972 519.129883,1079.380615 529.235046,1062.207031 
	C530.064331,1060.797729 532.130005,1059.245605 533.633057,1059.233398 
	C556.930908,1059.046143 580.230652,1059.102539 604.396729,1059.102539 
	C614.919495,1078.488647 626.111084,1099.027222 637.143799,1119.650635 
	C637.744080,1120.772583 637.506104,1122.884033 636.833374,1124.064819 
	C626.804626,1141.666992 616.689453,1159.221069 606.397888,1176.670410 
	C605.606995,1178.011475 603.363647,1179.199097 601.757263,1179.249878 
	C579.794617,1179.944580 557.823853,1180.379639 535.859375,1181.024048 
	C533.335999,1181.098022 532.135010,1180.292236 530.961182,1178.108276 
	C523.573181,1164.362793 516.008362,1150.712646 508.306519,1136.717041 
M592.749756,1087.798218 
	C591.714050,1085.945679 590.678345,1084.093140 590.030457,1082.934326 
	C575.989868,1082.934326 562.510986,1083.012939 549.034546,1082.867554 
	C546.349609,1082.838623 544.932129,1083.667236 543.619080,1086.026123 
	C538.203918,1095.754028 532.452026,1105.294678 527.062317,1115.036133 
	C526.282043,1116.446411 526.093506,1118.953613 526.824463,1120.310303 
	C533.432983,1132.575684 540.307434,1144.697632 546.529663,1155.833862 
	C560.262695,1155.833862 573.250244,1155.747681 586.235046,1155.897217 
	C589.304260,1155.932617 590.971191,1154.854858 592.452148,1152.184692 
	C597.691040,1142.739746 603.129944,1133.402344 608.677063,1124.134399 
	C610.124695,1121.715576 610.284424,1119.852905 608.853882,1117.326050 
	C603.452148,1107.784668 598.296997,1098.103638 592.749756,1087.798218 
z"/>
<path fill="#FCFCFC" opacity="1.000000" stroke="none" 
	d="
M610.485107,759.477173 
	C619.238525,775.546936 627.712708,791.350098 636.394348,807.038452 
	C637.851501,809.671509 637.979248,811.560547 636.411743,814.227417 
	C626.481628,831.120850 616.705811,848.105896 607.019287,865.140503 
	C605.624329,867.593750 604.112976,868.658936 601.217712,868.705017 
	C579.411072,869.052246 557.605957,869.525635 535.804199,870.106018 
	C533.260376,870.173767 532.087769,869.305725 530.916504,867.147461 
	C520.462708,847.884888 509.923798,828.667847 499.261658,809.519958 
	C497.854248,806.992432 497.943665,805.179260 499.386932,802.719727 
	C509.304199,785.819092 519.118652,768.856934 528.796387,751.818176 
	C530.304199,749.163574 531.965942,748.179871 535.014160,748.144226 
	C556.156250,747.896851 577.299377,747.565735 598.433594,746.962097 
	C602.479675,746.846497 604.853271,747.900391 606.312805,751.698975 
	C607.316772,754.311768 608.933105,756.689270 610.485107,759.477173 
M538.236572,830.240112 
	C541.164978,835.431213 544.093384,840.622314 546.521973,844.927490 
	C560.583069,844.927490 574.051086,845.003784 587.515381,844.816956 
	C588.958923,844.796936 590.971375,843.598755 591.719849,842.348572 
	C597.605774,832.517029 603.335632,822.587891 608.864990,812.551880 
	C609.638977,811.147034 609.731567,808.647339 609.001953,807.247375 
	C603.169495,796.057556 597.115601,784.981140 590.957214,773.966431 
	C590.358337,772.895264 588.598877,771.854370 587.372681,771.847961 
	C574.552185,771.781128 561.728088,771.825867 548.912354,772.140442 
	C547.214905,772.182068 544.864563,773.479065 543.995300,774.910522 
	C538.134338,784.562622 532.484619,794.349365 527.059631,804.253113 
	C526.240967,805.747681 526.282043,808.419434 527.068848,809.964600 
	C530.456970,816.618835 534.271240,823.056030 538.236572,830.240112 
z"/>
<path fill="#FCFCFC" opacity="1.000000" stroke="none" 
	d="
M1137.052490,1140.530518 
	C1114.497192,1141.047485 1092.357544,1141.461548 1070.224854,1142.106079 
	C1067.097290,1142.197021 1065.525879,1141.186035 1064.088745,1138.527832 
	C1053.745728,1119.395508 1043.298340,1100.318726 1032.750977,1081.298218 
	C1031.467651,1078.984131 1031.451294,1077.347900 1032.802002,1075.041138 
	C1042.787598,1057.987183 1052.644897,1040.857666 1062.439941,1023.693298 
	C1063.806030,1021.299500 1065.281128,1020.167969 1068.230469,1020.134766 
	C1090.038574,1019.888855 1111.845093,1019.467285 1133.649780,1018.992188 
	C1136.214111,1018.936279 1137.683228,1019.477661 1139.018433,1021.983826 
	C1149.243652,1041.177612 1159.739136,1060.227173 1169.979370,1079.413086 
	C1170.811523,1080.972412 1171.181885,1083.669556 1170.395752,1085.066040 
	C1160.375244,1102.864868 1150.116455,1120.529663 1139.861084,1138.195557 
	C1139.326660,1139.116455 1138.279053,1139.739380 1137.052490,1140.530518 
M1132.891602,1101.359985 
	C1135.951294,1096.036499 1138.861938,1090.618896 1142.134277,1085.429443 
	C1143.742310,1082.879395 1143.812744,1081.001831 1142.278809,1078.284790 
	C1135.844971,1066.888306 1129.733032,1055.309937 1123.616943,1044.008545 
	C1109.838135,1044.008545 1096.218994,1043.891602 1082.606934,1044.148560 
	C1080.794556,1044.182861 1078.298584,1045.675171 1077.343262,1047.239624 
	C1071.636353,1056.584717 1066.406738,1066.220337 1060.745728,1075.594604 
	C1059.130249,1078.269775 1059.342285,1080.126465 1060.847900,1082.731689 
	C1067.557251,1094.340454 1074.007690,1106.099121 1080.166138,1117.114136 
	C1089.384521,1117.114136 1098.194092,1117.187134 1107.001709,1117.087769 
	C1112.618408,1117.024292 1119.308228,1118.514771 1123.545532,1115.994263 
	C1127.802490,1113.462036 1129.615601,1106.821289 1132.891602,1101.359985 
z"/>
<path fill="#FCFCFC" opacity="1.000000" stroke="none" 
	d="
M853.990540,868.901001 
	C834.509521,868.909912 815.526672,868.909912 795.790222,868.909912 
	C785.219543,849.628418 774.001709,829.273926 762.974915,808.816467 
	C762.225708,807.426453 762.253235,804.890564 763.030273,803.515259 
	C773.003235,785.864136 783.134644,768.301575 793.395203,750.815979 
	C794.131348,749.561401 796.182251,748.358398 797.629822,748.348938 
	C820.944397,748.196106 844.260315,748.240967 868.216248,748.240967 
	C878.657104,767.422424 889.740845,787.678467 900.636292,808.035339 
	C901.380981,809.426636 901.376038,811.947937 900.603760,813.311829 
	C890.696167,830.809021 880.644836,848.226257 870.418823,865.539062 
	C869.542847,867.022217 867.252625,868.233215 865.462341,868.494507 
	C861.861816,869.019958 858.152954,868.802734 853.990540,868.901001 
M843.453247,845.026855 
	C844.784851,845.012329 846.142212,844.822998 847.443542,845.014404 
	C852.316589,845.730896 855.202881,843.863037 857.537964,839.350525 
	C862.187500,830.365112 867.629150,821.792175 872.565430,812.949402 
	C873.335510,811.569946 873.938782,809.262146 873.313110,808.067627 
	C866.872620,795.770264 860.162964,783.613892 853.853333,772.015625 
	C839.695068,772.015625 826.219299,771.935364 812.747192,772.121582 
	C811.142151,772.143738 808.856079,773.194519 808.074158,774.487305 
	C802.060730,784.430359 796.266907,794.509949 790.624817,804.669189 
	C789.927795,805.924133 789.925842,808.222534 790.613586,809.487061 
	C797.252930,821.694275 804.108948,833.783630 810.417480,845.040405 
	C821.513062,845.040405 831.989624,845.040405 843.453247,845.026855 
z"/>
<path fill="#FCFCFC" opacity="1.000000" stroke="none" 
	d="
M1081.006104,830.978394 
	C1069.712280,833.311096 1063.709839,828.878235 1058.982300,818.830017 
	C1051.215210,802.321167 1041.752075,786.605164 1032.847412,770.642212 
	C1031.464478,768.163025 1031.525269,766.352905 1032.931274,763.948120 
	C1042.831421,747.016235 1052.654175,730.038025 1062.331421,712.977966 
	C1063.854492,710.292786 1065.608032,709.383362 1068.613159,709.341553 
	C1090.440674,709.037415 1112.267090,708.616699 1134.089844,708.069397 
	C1136.669922,708.004700 1137.791382,708.915222 1138.941528,711.057312 
	C1149.238770,730.235596 1159.616577,749.371155 1170.112671,768.441223 
	C1171.467896,770.903687 1171.539429,772.698669 1170.093384,775.165344 
	C1160.174561,792.086487 1150.369629,809.075562 1140.677002,826.127380 
	C1139.192749,828.738708 1137.580688,829.854370 1134.484253,829.893982 
	C1116.822754,830.120117 1099.164307,830.586670 1081.006104,830.978394 
M1143.553589,772.008118 
	C1143.110229,770.509277 1142.907349,768.881897 1142.185669,767.531860 
	C1136.009521,755.978088 1129.739380,744.474487 1123.580933,733.110168 
	C1109.611572,733.110168 1095.793823,733.038086 1081.979492,733.217773 
	C1080.541016,733.236450 1078.528687,734.390381 1077.787476,735.622192 
	C1071.789673,745.589539 1065.973877,755.668762 1060.281250,765.814026 
	C1059.626343,766.981201 1059.474243,769.084595 1060.087646,770.209045 
	C1066.822632,782.554199 1073.755859,794.791077 1080.047607,806.009521 
	C1094.189575,806.009521 1107.514038,806.118347 1120.831909,805.871033 
	C1122.485229,805.840393 1124.738525,804.300842 1125.635254,802.811279 
	C1131.634521,792.846313 1137.341553,782.705322 1143.553589,772.008118 
z"/>
<path fill="#FCFCFC" opacity="1.000000" stroke="none" 
	d="
M1305.486328,786.544922 
	C1302.418335,780.992981 1299.681885,775.672729 1296.646362,770.528992 
	C1295.320312,768.282166 1295.190308,766.660889 1296.591919,764.274170 
	C1306.598145,747.235046 1316.433594,730.095093 1326.228271,712.932922 
	C1327.588257,710.549866 1329.063721,709.380249 1332.019897,709.341980 
	C1353.991455,709.057678 1375.959595,708.501404 1397.931396,708.272827 
	C1399.536499,708.256165 1401.865845,709.749268 1402.670166,711.199524 
	C1413.216675,730.215942 1423.507568,749.373962 1433.986328,768.428467 
	C1435.341553,770.893005 1435.369263,772.763000 1433.928223,775.220398 
	C1423.933716,792.265930 1414.019043,809.359680 1404.276245,826.549927 
	C1402.797852,829.158325 1401.081055,829.819397 1398.338501,829.864136 
	C1376.867310,830.214966 1355.396606,830.633911 1333.929932,831.194214 
	C1331.085693,831.268372 1329.496338,830.558716 1328.104248,827.950684 
	C1320.756592,814.185059 1313.188354,800.537109 1305.486328,786.544922 
M1381.325195,806.054443 
	C1384.165039,805.553223 1387.332397,807.235107 1389.469238,803.249695 
	C1394.879395,793.159729 1400.912109,783.405090 1406.486694,773.399780 
	C1407.193604,772.131104 1407.264771,769.844604 1406.595337,768.575684 
	C1400.267090,756.579346 1393.714478,744.701294 1387.399048,733.105957 
	C1373.560059,733.105957 1360.083496,732.989258 1346.613892,733.242615 
	C1344.775879,733.277100 1342.227905,734.702209 1341.275391,736.258667 
	C1335.471069,745.743591 1329.911133,755.386230 1324.594849,765.153259 
	C1323.718506,766.763306 1323.690186,769.653381 1324.554321,771.261841 
	C1330.988525,783.239197 1337.746704,795.042603 1343.936523,806.068909 
	C1356.412964,806.068909 1368.389160,806.068909 1381.325195,806.054443 
z"/>
<path fill="#FDFDFD" opacity="1.000000" stroke="none" 
	d="
M1223.997803,1063.852539 
	C1215.008179,1064.001587 1206.517090,1064.247314 1198.028931,1064.172119 
	C1196.634766,1064.159668 1194.618164,1063.089355 1193.960205,1061.910400 
	C1183.036743,1042.339111 1172.238403,1022.697144 1161.596069,1002.971741 
	C1160.867676,1001.621826 1160.969116,999.131592 1161.740479,997.769836 
	C1171.644897,980.285889 1181.702515,962.887939 1191.868774,945.554626 
	C1192.628418,944.259399 1194.508545,942.813599 1195.877686,942.803894 
	C1219.335083,942.635864 1242.794067,942.683167 1267.035156,942.683167 
	C1277.253662,961.495728 1288.127319,981.640259 1299.172363,1001.690369 
	C1300.563354,1004.215515 1300.425537,1006.025818 1299.025635,1008.420044 
	C1289.134644,1025.337891 1279.323242,1042.303101 1269.636719,1059.338867 
	C1268.148560,1061.955933 1266.531494,1062.989624 1263.445435,1063.013184 
	C1250.461426,1063.112061 1237.479736,1063.536621 1223.997803,1063.852539 
M1263.417603,1020.907593 
	C1265.989868,1016.445740 1268.438721,1011.906189 1271.183960,1007.553467 
	C1272.654297,1005.221924 1272.904297,1003.427429 1271.442993,1000.838928 
	C1265.401123,990.136353 1259.726318,979.226868 1253.719971,968.503601 
	C1253.047241,967.302429 1251.129395,966.096436 1249.779663,966.085876 
	C1236.955200,965.985901 1224.125977,966.033997 1211.306274,966.360840 
	C1209.623169,966.403687 1207.327759,967.855286 1206.434692,969.331360 
	C1200.672119,978.853333 1195.306519,988.614807 1189.604492,998.174805 
	C1188.243164,1000.457397 1188.124512,1002.071594 1189.489746,1004.436707 
	C1196.285889,1016.209839 1202.853394,1028.114868 1209.271240,1039.562744 
	C1217.565552,1039.562744 1225.554810,1039.675293 1233.539429,1039.527344 
	C1240.000000,1039.407593 1247.768921,1041.081543 1252.550781,1038.099976 
	C1257.549316,1034.983398 1259.672363,1027.255005 1263.417603,1020.907593 
z"/>
<path fill="#FCFCFC" opacity="1.000000" stroke="none" 
	d="
M1317.757812,964.288818 
	C1310.705444,951.445312 1303.902466,938.885437 1296.889282,926.444092 
	C1295.436768,923.867493 1295.217651,922.014771 1296.814941,919.301636 
	C1306.759766,902.410278 1316.520996,885.409546 1326.182495,868.354065 
	C1327.700928,865.673584 1329.439819,864.880737 1332.451050,864.846313 
	C1354.099976,864.599182 1375.748169,864.208191 1397.390991,863.647095 
	C1400.357056,863.570190 1401.720825,864.487915 1403.076172,867.018127 
	C1413.192383,885.903198 1423.419922,904.729797 1433.787109,923.478210 
	C1435.348999,926.302856 1435.297363,928.353394 1433.668213,931.122803 
	C1423.897949,947.731873 1414.286499,964.435059 1404.740234,981.174255 
	C1403.221191,983.837708 1401.682007,985.155884 1398.279907,985.205688 
	C1375.641357,985.536926 1353.007568,986.189941 1330.076050,986.745544 
	C1326.072144,979.448486 1322.002319,972.031494 1317.757812,964.288818 
M1341.219360,891.412476 
	C1335.674438,901.063354 1330.054565,910.672729 1324.664917,920.409546 
	C1323.856445,921.869934 1323.326904,924.355469 1324.018188,925.640320 
	C1330.683960,938.028809 1337.638916,950.261597 1343.891968,961.432861 
	C1357.937012,961.432861 1371.081787,961.558228 1384.218506,961.288940 
	C1386.050415,961.251465 1388.564941,959.713318 1389.534790,958.121399 
	C1395.323486,948.618774 1400.853638,938.952209 1406.191895,929.188354 
	C1407.002563,927.705750 1407.057129,925.067627 1406.282104,923.577454 
	C1400.097168,911.686707 1393.627808,899.943970 1387.523315,888.668884 
	C1373.512695,888.668884 1359.864502,888.603577 1346.218872,888.760925 
	C1344.707886,888.778320 1343.211548,890.066895 1341.219360,891.412476 
z"/>
<path fill="#FDFDFD" opacity="1.000000" stroke="none" 
	d="
M729.735229,1135.824951 
	C733.014587,1135.816040 735.830078,1135.816040 738.708191,1135.816040 
	C749.621216,1155.907349 760.512207,1176.067871 771.556519,1196.143921 
	C772.849060,1198.493530 772.820068,1200.117798 771.463684,1202.433228 
	C761.472778,1219.485596 751.707642,1236.670654 741.685852,1253.704590 
	C740.792969,1255.222290 738.611633,1256.876343 736.978577,1256.929810 
	C713.850281,1257.684326 690.713379,1258.172729 667.491394,1258.727783 
	C656.328247,1238.377319 645.105530,1218.042725 634.096375,1197.593140 
	C633.285278,1196.086670 633.297729,1193.346924 634.135803,1191.863037 
	C643.937561,1174.509155 653.902100,1157.245605 664.060120,1140.098267 
	C664.980591,1138.544312 667.516174,1137.110718 669.342957,1137.058472 
	C689.314331,1136.485474 709.293884,1136.198608 729.735229,1135.824951 
M740.377075,1189.142944 
	C735.101807,1179.413208 729.826538,1169.683350 724.930969,1160.654053 
	C710.770752,1160.654053 697.283203,1160.553833 683.800964,1160.778809 
	C682.085693,1160.807373 679.690674,1162.104126 678.812866,1163.545410 
	C672.852844,1173.331543 667.156311,1183.280884 661.553772,1193.277832 
	C660.897827,1194.448242 660.741699,1196.556885 661.357300,1197.680786 
	C668.117737,1210.023804 675.077332,1222.257690 681.371216,1233.434814 
	C695.178772,1233.434814 708.158569,1233.365479 721.136475,1233.486816 
	C724.139282,1233.515015 725.884399,1232.551758 727.362000,1229.821655 
	C731.551025,1222.081787 735.617554,1214.197144 740.659607,1207.021118 
	C744.974304,1200.880371 745.575378,1195.558594 740.377075,1189.142944 
z"/>
<path fill="#FDFDFD" opacity="1.000000" stroke="none" 
	d="
M1112.999756,864.019043 
	C1121.320801,864.012756 1129.141846,864.012756 1137.498657,864.012756 
	C1147.473022,882.342834 1157.400879,901.275757 1168.068970,919.781860 
	C1171.352051,925.477112 1171.046631,929.461853 1167.730591,934.878296 
	C1158.281616,950.312805 1149.526367,966.171082 1140.344971,981.772400 
	C1139.503784,983.201965 1137.593262,984.886780 1136.130493,984.933716 
	C1112.861450,985.680420 1089.584473,986.178833 1066.219360,986.736206 
	C1054.916870,966.162109 1043.607300,945.665283 1032.467773,925.076538 
	C1031.794434,923.831970 1031.894775,921.528076 1032.609009,920.269897 
	C1042.610352,902.649536 1052.730713,885.095703 1063.011475,867.637207 
	C1063.794800,866.306946 1065.983032,865.100647 1067.558105,865.049011 
	C1082.533813,864.558105 1097.518066,864.329468 1112.999756,864.019043 
M1067.465576,939.018066 
	C1071.841553,946.814209 1076.217529,954.610352 1080.052246,961.442444 
	C1093.887695,961.442444 1107.029907,961.369995 1120.170044,961.498901 
	C1123.065308,961.527283 1124.620728,960.433594 1126.001465,957.955811 
	C1131.339355,948.376160 1136.799561,938.860107 1142.452271,929.463562 
	C1143.867676,927.110657 1143.725098,925.484375 1142.447510,923.187744 
	C1135.999268,911.596802 1129.748901,899.895752 1123.664673,888.668030 
	C1109.807251,888.668030 1096.150757,888.547546 1082.501709,888.812622 
	C1080.687622,888.847839 1078.270874,890.421753 1077.234253,892.004333 
	C1073.688599,897.416992 1070.616455,903.141174 1067.397705,908.766113 
	C1064.593750,913.666382 1059.709961,918.569702 1059.656128,923.514404 
	C1059.602295,928.442993 1064.412476,933.424622 1067.465576,939.018066 
z"/>
<path fill="#FDFDFD" opacity="1.000000" stroke="none" 
	d="
M1063.651123,1177.146729 
	C1065.255005,1176.481323 1066.623901,1175.862305 1067.994507,1175.858765 
	C1090.974976,1175.798950 1113.955566,1175.816040 1138.021362,1175.816040 
	C1148.465942,1195.018311 1159.744873,1215.688599 1170.883911,1236.434204 
	C1171.421753,1237.436157 1171.156006,1239.344238 1170.542969,1240.418579 
	C1160.411621,1258.171265 1150.207153,1275.882812 1139.850464,1293.504517 
	C1139.129272,1294.731689 1137.103149,1295.851196 1135.651978,1295.892090 
	C1112.537354,1296.546021 1089.417358,1297.015625 1066.186401,1297.529663 
	C1054.908325,1276.994995 1043.574341,1256.494019 1032.482422,1235.862793 
	C1031.731323,1234.465576 1032.235840,1231.766479 1033.114380,1230.215698 
	C1043.107422,1212.575806 1053.287231,1195.041626 1063.651123,1177.146729 
M1139.635010,1228.886597 
	C1134.242432,1218.988037 1128.849976,1209.089600 1123.577026,1199.410522 
	C1109.685791,1199.410522 1095.866821,1199.321411 1082.052612,1199.534668 
	C1080.502563,1199.558472 1078.367554,1200.925659 1077.541138,1202.295654 
	C1071.620117,1212.109497 1065.910156,1222.052979 1060.307617,1232.053101 
	C1059.652222,1233.223389 1059.460205,1235.316284 1060.066895,1236.428833 
	C1066.801392,1248.779297 1073.735840,1261.020752 1080.027100,1272.240845 
	C1093.866211,1272.240845 1106.849854,1272.161133 1119.831299,1272.300415 
	C1122.848389,1272.332764 1124.604370,1271.409180 1126.090210,1268.682007 
	C1130.460815,1260.661011 1134.791626,1252.571533 1139.865234,1244.995850 
	C1143.540771,1239.507812 1144.367432,1234.734863 1139.635010,1228.886597 
z"/>
<path fill="#FDFDFD" opacity="1.000000" stroke="none" 
	d="
M869.241211,905.567505 
	C879.741272,924.884094 890.000305,943.892334 900.448120,962.796326 
	C901.851013,965.334778 901.731873,967.088745 900.307678,969.523560 
	C890.405823,986.451477 880.614136,1003.444885 870.941223,1020.504639 
	C869.438171,1023.155579 867.750916,1024.043091 864.704468,1024.090942 
	C842.048340,1024.447632 819.395752,1025.029785 796.462708,1025.547485 
	C785.295349,1005.184448 774.005005,984.705872 762.909973,964.122009 
	C762.171326,962.751648 762.281616,960.224243 763.065002,958.838928 
	C772.964417,941.334412 783.008667,923.910522 793.206604,906.578247 
	C793.998108,905.232910 796.198059,903.987732 797.777649,903.944336 
	C820.262634,903.327332 842.752869,902.880371 865.244446,902.593201 
	C866.504700,902.577087 867.787292,904.308350 869.241211,905.567505 
M856.336853,932.046814 
	C855.422729,930.331604 854.508606,928.616394 853.864624,927.408142 
	C839.994446,927.408142 826.678772,927.471741 813.364563,927.356445 
	C810.585693,927.332336 808.836792,928.066895 807.411987,930.635071 
	C802.015015,940.362915 796.273071,949.900269 790.935181,959.659241 
	C790.129517,961.131958 790.086853,963.776428 790.873535,965.245911 
	C796.906128,976.514404 803.167664,987.663025 809.558838,998.732971 
	C810.235046,999.904175 812.211914,1001.005127 813.574951,1000.992859 
	C826.057495,1000.880310 838.542419,1000.624207 851.013123,1000.093079 
	C852.709900,1000.020813 854.988892,998.601624 855.882385,997.129028 
	C861.566528,987.761292 866.819580,978.132263 872.486511,968.753540 
	C874.101074,966.081360 873.934753,964.141846 872.473755,961.542053 
	C867.106995,951.992371 861.982361,942.306641 856.336853,932.046814 
z"/>
<path fill="#FDFDFD" opacity="1.000000" stroke="none" 
	d="
M1290.281250,674.665100 
	C1293.875977,681.440674 1299.952393,687.903748 1299.932861,694.348267 
	C1299.913818,700.558594 1293.609253,706.756470 1290.045410,712.947998 
	C1283.329590,724.616150 1276.516846,736.229614 1269.932983,747.971558 
	C1268.309814,750.866699 1266.533569,752.068787 1263.040527,752.117004 
	C1240.550293,752.427368 1218.064087,753.041199 1195.202515,753.564026 
	C1183.898804,732.995117 1172.441406,712.210022 1161.119751,691.351318 
	C1160.576782,690.351196 1160.789551,688.449402 1161.393311,687.391357 
	C1171.524414,669.635498 1181.739746,651.927246 1192.074829,634.289551 
	C1192.748657,633.139648 1194.539673,631.957947 1195.817993,631.950378 
	C1219.293945,631.810791 1242.771118,631.848328 1267.048096,631.848328 
	C1274.267090,645.158264 1282.182007,659.751404 1290.281250,674.665100 
M1198.282227,709.190552 
	C1202.023315,715.825623 1205.764526,722.460693 1209.023438,728.240356 
	C1222.885986,728.240356 1236.198608,728.364990 1249.503174,728.093811 
	C1251.310059,728.057007 1253.774292,726.463806 1254.747192,724.867798 
	C1260.453369,715.507629 1265.681641,705.856689 1271.361694,696.479797 
	C1272.910400,693.923157 1272.604126,692.155518 1271.278564,689.765747 
	C1264.921509,678.304504 1258.736572,666.747864 1252.604492,655.435608 
	C1238.743652,655.435608 1224.925049,655.347717 1211.110962,655.557434 
	C1209.549194,655.581116 1207.452881,656.915955 1206.566040,658.271790 
	C1203.478271,662.991943 1200.780273,667.969971 1197.996826,672.885498 
	C1194.651489,678.793457 1188.784546,684.738647 1188.786743,690.665894 
	C1188.789062,696.620483 1194.664673,702.572876 1198.282227,709.190552 
z"/>
<path fill="#FDFDFD" opacity="1.000000" stroke="none" 
	d="
M597.126648,902.614136 
	C599.568909,902.605042 601.564636,902.605042 603.793762,902.605042 
	C614.751770,922.754395 625.905518,943.151978 636.859497,963.656250 
	C637.591736,965.026794 637.430603,967.557495 636.638428,968.955750 
	C626.813660,986.297546 616.728455,1003.491760 606.896973,1020.829895 
	C605.423279,1023.428833 603.691772,1024.012451 600.956299,1024.062012 
	C578.315735,1024.472900 555.677734,1025.026001 532.614380,1025.545776 
	C522.767090,1007.592834 513.269714,989.177979 502.644409,971.438660 
	C498.288940,964.166992 498.350464,958.953430 502.836243,951.899231 
	C511.919220,937.615601 520.076843,922.734924 528.346680,907.949707 
	C530.149170,904.727173 532.168457,903.747742 535.743408,903.711182 
	C556.057251,903.503357 576.368164,903.015747 597.126648,902.614136 
M595.706421,937.816406 
	C593.715881,934.201294 591.725342,930.586182 589.977234,927.411499 
	C576.090942,927.411499 562.612061,927.313416 549.138306,927.532043 
	C547.397522,927.560303 544.945740,928.778503 544.075928,930.207825 
	C538.123291,939.989258 532.434326,949.934814 526.866882,959.942444 
	C526.156006,961.220337 526.000732,963.511536 526.671021,964.744568 
	C533.321594,976.978760 540.200317,989.088867 546.448486,1000.225220 
	C560.466980,1000.225220 573.770264,1000.329163 587.067566,1000.095276 
	C588.752869,1000.065674 591.080750,998.676331 591.966492,997.220703 
	C597.746033,987.721985 603.333374,978.098633 608.656250,968.337463 
	C609.548523,966.701172 609.590637,963.824036 608.755920,962.155396 
	C604.749634,954.146179 600.307129,946.355042 595.706421,937.816406 
z"/>
<path fill="#FDFDFD" opacity="1.000000" stroke="none" 
	d="
M679.043884,670.451782 
	C699.185120,670.444031 718.832825,670.444031 739.178772,670.444031 
	C749.738586,689.853455 760.880615,710.239319 771.847229,730.719177 
	C772.516907,731.969666 772.364136,734.286255 771.638306,735.563965 
	C761.703369,753.052063 751.550781,770.416382 741.596191,787.893433 
	C740.249146,790.258606 738.717896,790.951965 736.090454,790.990906 
	C715.595520,791.293884 695.103210,791.769653 674.609863,792.179626 
	C672.459412,792.222656 670.307434,792.185364 667.668579,792.185364 
	C656.529541,772.054810 645.083984,751.460632 633.809753,730.773193 
	C633.127197,729.520691 633.221069,727.194702 633.939697,725.927185 
	C643.941162,708.286072 654.071350,690.716980 664.339355,673.229736 
	C665.067078,671.990356 667.050842,671.009094 668.568359,670.811401 
	C671.855164,670.383240 675.218384,670.541199 679.043884,670.451782 
M675.381653,702.876099 
	C670.905701,710.648743 666.501587,718.464233 661.908386,726.166931 
	C660.592102,728.374329 660.424194,730.037048 661.790466,732.398560 
	C668.192871,743.464783 674.283752,754.711243 680.692627,765.773560 
	C681.358887,766.923645 683.398499,767.922180 684.789490,767.907654 
	C697.274353,767.776794 709.760559,767.496704 722.235046,766.983948 
	C723.812988,766.919128 725.948975,765.635498 726.768066,764.277893 
	C732.601135,754.609619 738.266602,744.834229 743.690247,734.931335 
	C744.517761,733.420349 744.521118,730.708984 743.718628,729.173157 
	C737.567932,717.402832 731.123474,705.786011 724.802979,694.181458 
	C712.939209,694.181458 701.109985,694.669373 689.346924,693.997864 
	C682.328735,693.597229 677.982788,695.673706 675.381653,702.876099 
z"/>
<path fill="#010101" opacity="1.000000" stroke="none" 
	d="
M865.360962,1136.349854 
	C862.095947,1141.977905 859.237976,1147.435303 855.860718,1152.549805 
	C854.821960,1154.122803 852.381409,1155.644409 850.552246,1155.681274 
	C837.422302,1155.946655 824.284485,1155.823242 810.393372,1155.823242 
	C804.100525,1144.606323 797.167358,1132.370483 790.427124,1120.029297 
	C789.808350,1118.896362 789.899780,1116.798096 790.545593,1115.642334 
	C796.212219,1105.502075 801.971069,1095.407959 808.012451,1085.488892 
	C808.852051,1084.110596 811.367554,1083.068481 813.124573,1083.042236 
	C826.579407,1082.842163 840.038635,1082.932373 853.897339,1082.932373 
	C859.999817,1094.135742 866.505066,1105.866333 872.719238,1117.748901 
	C873.517090,1119.274536 873.426575,1121.887329 872.668762,1123.484497 
	C870.611877,1127.819092 867.975037,1131.878540 865.360962,1136.349854 
z"/>
<path fill="#010101" opacity="1.000000" stroke="none" 
	d="
M592.899658,1088.136597 
	C598.296997,1098.103638 603.452148,1107.784668 608.853882,1117.326050 
	C610.284424,1119.852905 610.124695,1121.715576 608.677063,1124.134399 
	C603.129944,1133.402344 597.691040,1142.739746 592.452148,1152.184692 
	C590.971191,1154.854858 589.304260,1155.932617 586.235046,1155.897217 
	C573.250244,1155.747681 560.262695,1155.833862 546.529663,1155.833862 
	C540.307434,1144.697632 533.432983,1132.575684 526.824463,1120.310303 
	C526.093506,1118.953613 526.282043,1116.446411 527.062317,1115.036133 
	C532.452026,1105.294678 538.203918,1095.754028 543.619080,1086.026123 
	C544.932129,1083.667236 546.349609,1082.838623 549.034546,1082.867554 
	C562.510986,1083.012939 575.989868,1082.934326 590.030457,1082.934326 
	C590.678345,1084.093140 591.714050,1085.945679 592.899658,1088.136597 
z"/>
<path fill="#010101" opacity="1.000000" stroke="none" 
	d="
M538.083496,829.906189 
	C534.271240,823.056030 530.456970,816.618835 527.068848,809.964600 
	C526.282043,808.419434 526.240967,805.747681 527.059631,804.253113 
	C532.484619,794.349365 538.134338,784.562622 543.995300,774.910522 
	C544.864563,773.479065 547.214905,772.182068 548.912354,772.140442 
	C561.728088,771.825867 574.552185,771.781128 587.372681,771.847961 
	C588.598877,771.854370 590.358337,772.895264 590.957214,773.966431 
	C597.115601,784.981140 603.169495,796.057556 609.001953,807.247375 
	C609.731567,808.647339 609.638977,811.147034 608.864990,812.551880 
	C603.335632,822.587891 597.605774,832.517029 591.719849,842.348572 
	C590.971375,843.598755 588.958923,844.796936 587.515381,844.816956 
	C574.051086,845.003784 560.583069,844.927490 546.521973,844.927490 
	C544.093384,840.622314 541.164978,835.431213 538.083496,829.906189 
z"/>
<path fill="#010101" opacity="1.000000" stroke="none" 
	d="
M1132.695557,1101.670532 
	C1129.615601,1106.821289 1127.802490,1113.462036 1123.545532,1115.994263 
	C1119.308228,1118.514771 1112.618408,1117.024292 1107.001709,1117.087769 
	C1098.194092,1117.187134 1089.384521,1117.114136 1080.166138,1117.114136 
	C1074.007690,1106.099121 1067.557251,1094.340454 1060.847900,1082.731689 
	C1059.342285,1080.126465 1059.130249,1078.269775 1060.745728,1075.594604 
	C1066.406738,1066.220337 1071.636353,1056.584717 1077.343262,1047.239624 
	C1078.298584,1045.675171 1080.794556,1044.182861 1082.606934,1044.148560 
	C1096.218994,1043.891602 1109.838135,1044.008545 1123.616943,1044.008545 
	C1129.733032,1055.309937 1135.844971,1066.888306 1142.278809,1078.284790 
	C1143.812744,1081.001831 1143.742310,1082.879395 1142.134277,1085.429443 
	C1138.861938,1090.618896 1135.951294,1096.036499 1132.695557,1101.670532 
z"/>
<path fill="#010101" opacity="1.000000" stroke="none" 
	d="
M842.959717,845.033630 
	C831.989624,845.040405 821.513062,845.040405 810.417480,845.040405 
	C804.108948,833.783630 797.252930,821.694275 790.613586,809.487061 
	C789.925842,808.222534 789.927795,805.924133 790.624817,804.669189 
	C796.266907,794.509949 802.060730,784.430359 808.074158,774.487305 
	C808.856079,773.194519 811.142151,772.143738 812.747192,772.121582 
	C826.219299,771.935364 839.695068,772.015625 853.853333,772.015625 
	C860.162964,783.613892 866.872620,795.770264 873.313110,808.067627 
	C873.938782,809.262146 873.335510,811.569946 872.565430,812.949402 
	C867.629150,821.792175 862.187500,830.365112 857.537964,839.350525 
	C855.202881,843.863037 852.316589,845.730896 847.443542,845.014404 
	C846.142212,844.822998 844.784851,845.012329 842.959717,845.033630 
z"/>
<path fill="#010101" opacity="1.000000" stroke="none" 
	d="
M1143.348389,772.314819 
	C1137.341553,782.705322 1131.634521,792.846313 1125.635254,802.811279 
	C1124.738525,804.300842 1122.485229,805.840393 1120.831909,805.871033 
	C1107.514038,806.118347 1094.189575,806.009521 1080.047607,806.009521 
	C1073.755859,794.791077 1066.822632,782.554199 1060.087646,770.209045 
	C1059.474243,769.084595 1059.626343,766.981201 1060.281250,765.814026 
	C1065.973877,755.668762 1071.789673,745.589539 1077.787476,735.622192 
	C1078.528687,734.390381 1080.541016,733.236450 1081.979492,733.217773 
	C1095.793823,733.038086 1109.611572,733.110168 1123.580933,733.110168 
	C1129.739380,744.474487 1136.009521,755.978088 1142.185669,767.531860 
	C1142.907349,768.881897 1143.110229,770.509277 1143.348389,772.314819 
z"/>
<path fill="#010101" opacity="1.000000" stroke="none" 
	d="
M1380.845215,806.061646 
	C1368.389160,806.068909 1356.412964,806.068909 1343.936523,806.068909 
	C1337.746704,795.042603 1330.988525,783.239197 1324.554321,771.261841 
	C1323.690186,769.653381 1323.718506,766.763306 1324.594849,765.153259 
	C1329.911133,755.386230 1335.471069,745.743591 1341.275391,736.258667 
	C1342.227905,734.702209 1344.775879,733.277100 1346.613892,733.242615 
	C1360.083496,732.989258 1373.560059,733.105957 1387.399048,733.105957 
	C1393.714478,744.701294 1400.267090,756.579346 1406.595337,768.575684 
	C1407.264771,769.844604 1407.193604,772.131104 1406.486694,773.399780 
	C1400.912109,783.405090 1394.879395,793.159729 1389.469238,803.249695 
	C1387.332397,807.235107 1384.165039,805.553223 1380.845215,806.061646 
z"/>
<path fill="#020202" opacity="1.000000" stroke="none" 
	d="
M1263.234985,1021.225098 
	C1259.672363,1027.255005 1257.549316,1034.983398 1252.550781,1038.099976 
	C1247.768921,1041.081543 1240.000000,1039.407593 1233.539429,1039.527344 
	C1225.554810,1039.675293 1217.565552,1039.562744 1209.271240,1039.562744 
	C1202.853394,1028.114868 1196.285889,1016.209839 1189.489746,1004.436707 
	C1188.124512,1002.071594 1188.243164,1000.457397 1189.604492,998.174805 
	C1195.306519,988.614807 1200.672119,978.853333 1206.434692,969.331360 
	C1207.327759,967.855286 1209.623169,966.403687 1211.306274,966.360840 
	C1224.125977,966.033997 1236.955200,965.985901 1249.779663,966.085876 
	C1251.129395,966.096436 1253.047241,967.302429 1253.719971,968.503601 
	C1259.726318,979.226868 1265.401123,990.136353 1271.442993,1000.838928 
	C1272.904297,1003.427429 1272.654297,1005.221924 1271.183960,1007.553467 
	C1268.438721,1011.906189 1265.989868,1016.445740 1263.234985,1021.225098 
z"/>
<path fill="#020202" opacity="1.000000" stroke="none" 
	d="
M1341.463867,891.089172 
	C1343.211548,890.066895 1344.707886,888.778320 1346.218872,888.760925 
	C1359.864502,888.603577 1373.512695,888.668884 1387.523315,888.668884 
	C1393.627808,899.943970 1400.097168,911.686707 1406.282104,923.577454 
	C1407.057129,925.067627 1407.002563,927.705750 1406.191895,929.188354 
	C1400.853638,938.952209 1395.323486,948.618774 1389.534790,958.121399 
	C1388.564941,959.713318 1386.050415,961.251465 1384.218506,961.288940 
	C1371.081787,961.558228 1357.937012,961.432861 1343.891968,961.432861 
	C1337.638916,950.261597 1330.683960,938.028809 1324.018188,925.640320 
	C1323.326904,924.355469 1323.856445,921.869934 1324.664917,920.409546 
	C1330.054565,910.672729 1335.674438,901.063354 1341.463867,891.089172 
z"/>
<path fill="#020202" opacity="1.000000" stroke="none" 
	d="
M740.584473,1189.451416 
	C745.575378,1195.558594 744.974304,1200.880371 740.659607,1207.021118 
	C735.617554,1214.197144 731.551025,1222.081787 727.362000,1229.821655 
	C725.884399,1232.551758 724.139282,1233.515015 721.136475,1233.486816 
	C708.158569,1233.365479 695.178772,1233.434814 681.371216,1233.434814 
	C675.077332,1222.257690 668.117737,1210.023804 661.357300,1197.680786 
	C660.741699,1196.556885 660.897827,1194.448242 661.553772,1193.277832 
	C667.156311,1183.280884 672.852844,1173.331543 678.812866,1163.545410 
	C679.690674,1162.104126 682.085693,1160.807373 683.800964,1160.778809 
	C697.283203,1160.553833 710.770752,1160.654053 724.930969,1160.654053 
	C729.826538,1169.683350 735.101807,1179.413208 740.584473,1189.451416 
z"/>
<path fill="#020202" opacity="1.000000" stroke="none" 
	d="
M1067.277832,938.700562 
	C1064.412476,933.424622 1059.602295,928.442993 1059.656128,923.514404 
	C1059.709961,918.569702 1064.593750,913.666382 1067.397705,908.766113 
	C1070.616455,903.141174 1073.688599,897.416992 1077.234253,892.004333 
	C1078.270874,890.421753 1080.687622,888.847839 1082.501709,888.812622 
	C1096.150757,888.547546 1109.807251,888.668030 1123.664673,888.668030 
	C1129.748901,899.895752 1135.999268,911.596802 1142.447510,923.187744 
	C1143.725098,925.484375 1143.867676,927.110657 1142.452271,929.463562 
	C1136.799561,938.860107 1131.339355,948.376160 1126.001465,957.955811 
	C1124.620728,960.433594 1123.065308,961.527283 1120.170044,961.498901 
	C1107.029907,961.369995 1093.887695,961.442444 1080.052246,961.442444 
	C1076.217529,954.610352 1071.841553,946.814209 1067.277832,938.700562 
z"/>
<path fill="#020202" opacity="1.000000" stroke="none" 
	d="
M1139.803711,1229.215698 
	C1144.367432,1234.734863 1143.540771,1239.507812 1139.865234,1244.995850 
	C1134.791626,1252.571533 1130.460815,1260.661011 1126.090210,1268.682007 
	C1124.604370,1271.409180 1122.848389,1272.332764 1119.831299,1272.300415 
	C1106.849854,1272.161133 1093.866211,1272.240845 1080.027100,1272.240845 
	C1073.735840,1261.020752 1066.801392,1248.779297 1060.066895,1236.428833 
	C1059.460205,1235.316284 1059.652222,1233.223389 1060.307617,1232.053101 
	C1065.910156,1222.052979 1071.620117,1212.109497 1077.541138,1202.295654 
	C1078.367554,1200.925659 1080.502563,1199.558472 1082.052612,1199.534668 
	C1095.866821,1199.321411 1109.685791,1199.410522 1123.577026,1199.410522 
	C1128.849976,1209.089600 1134.242432,1218.988037 1139.803711,1229.215698 
z"/>
<path fill="#020202" opacity="1.000000" stroke="none" 
	d="
M856.551697,932.359497 
	C861.982361,942.306641 867.106995,951.992371 872.473755,961.542053 
	C873.934753,964.141846 874.101074,966.081360 872.486511,968.753540 
	C866.819580,978.132263 861.566528,987.761292 855.882385,997.129028 
	C854.988892,998.601624 852.709900,1000.020813 851.013123,1000.093079 
	C838.542419,1000.624207 826.057495,1000.880310 813.574951,1000.992859 
	C812.211914,1001.005127 810.235046,999.904175 809.558838,998.732971 
	C803.167664,987.663025 796.906128,976.514404 790.873535,965.245911 
	C790.086853,963.776428 790.129517,961.131958 790.935181,959.659241 
	C796.273071,949.900269 802.015015,940.362915 807.411987,930.635071 
	C808.836792,928.066895 810.585693,927.332336 813.364563,927.356445 
	C826.678772,927.471741 839.994446,927.408142 853.864624,927.408142 
	C854.508606,928.616394 855.422729,930.331604 856.551697,932.359497 
z"/>
<path fill="#020202" opacity="1.000000" stroke="none" 
	d="
M1198.124268,708.858398 
	C1194.664673,702.572876 1188.789062,696.620483 1188.786743,690.665894 
	C1188.784546,684.738647 1194.651489,678.793457 1197.996826,672.885498 
	C1200.780273,667.969971 1203.478271,662.991943 1206.566040,658.271790 
	C1207.452881,656.915955 1209.549194,655.581116 1211.110962,655.557434 
	C1224.925049,655.347717 1238.743652,655.435608 1252.604492,655.435608 
	C1258.736572,666.747864 1264.921509,678.304504 1271.278564,689.765747 
	C1272.604126,692.155518 1272.910400,693.923157 1271.361694,696.479797 
	C1265.681641,705.856689 1260.453369,715.507629 1254.747192,724.867798 
	C1253.774292,726.463806 1251.310059,728.057007 1249.503174,728.093811 
	C1236.198608,728.364990 1222.885986,728.240356 1209.023438,728.240356 
	C1205.764526,722.460693 1202.023315,715.825623 1198.124268,708.858398 
z"/>
<path fill="#020202" opacity="1.000000" stroke="none" 
	d="
M595.863037,938.151489 
	C600.307129,946.355042 604.749634,954.146179 608.755920,962.155396 
	C609.590637,963.824036 609.548523,966.701172 608.656250,968.337463 
	C603.333374,978.098633 597.746033,987.721985 591.966492,997.220703 
	C591.080750,998.676331 588.752869,1000.065674 587.067566,1000.095276 
	C573.770264,1000.329163 560.466980,1000.225220 546.448486,1000.225220 
	C540.200317,989.088867 533.321594,976.978760 526.671021,964.744568 
	C526.000732,963.511536 526.156006,961.220337 526.866882,959.942444 
	C532.434326,949.934814 538.123291,939.989258 544.075928,930.207825 
	C544.945740,928.778503 547.397522,927.560303 549.138306,927.532043 
	C562.612061,927.313416 576.090942,927.411499 589.977234,927.411499 
	C591.725342,930.586182 593.715881,934.201294 595.863037,938.151489 
z"/>
<path fill="#020202" opacity="1.000000" stroke="none" 
	d="
M675.592773,702.573608 
	C677.982788,695.673706 682.328735,693.597229 689.346924,693.997864 
	C701.109985,694.669373 712.939209,694.181458 724.802979,694.181458 
	C731.123474,705.786011 737.567932,717.402832 743.718628,729.173157 
	C744.521118,730.708984 744.517761,733.420349 743.690247,734.931335 
	C738.266602,744.834229 732.601135,754.609619 726.768066,764.277893 
	C725.948975,765.635498 723.812988,766.919128 722.235046,766.983948 
	C709.760559,767.496704 697.274353,767.776794 684.789490,767.907654 
	C683.398499,767.922180 681.358887,766.923645 680.692627,765.773560 
	C674.283752,754.711243 668.192871,743.464783 661.790466,732.398560 
	C660.424194,730.037048 660.592102,728.374329 661.908386,726.166931 
	C666.501587,718.464233 670.905701,710.648743 675.592773,702.573608 
z"/>
</svg>